<svg viewBox="0 0 48 48" xmlns="http://www.w3.org/2000/svg">
  <defs>
    <!-- 主要渐变 - 蓝色到紫色 -->
    <linearGradient id="logoGradient" x1="0%" y1="0%" x2="100%" y2="100%">
      <stop offset="0%" style="stop-color:#4f46e5;stop-opacity:1" />
      <stop offset="50%" style="stop-color:#7c3aed;stop-opacity:1" />
      <stop offset="100%" style="stop-color:#2563eb;stop-opacity:1" />
    </linearGradient>
    
    <!-- 辅助渐变 - 青色高光 -->
    <linearGradient id="logoAccent" x1="0%" y1="0%" x2="100%" y2="100%">
      <stop offset="0%" style="stop-color:#06b6d4;stop-opacity:0.8" />
      <stop offset="100%" style="stop-color:#0891b2;stop-opacity:0.6" />
    </linearGradient>
  </defs>
  
  <!-- 外圈 - 代表全球网络 -->
  <circle cx="24" cy="24" r="20" fill="none" stroke="url(#logoGradient)" stroke-width="2" opacity="0.6"/>
  
  <!-- 中心节点 - 代表查询核心 -->
  <circle cx="24" cy="24" r="6" fill="url(#logoGradient)"/>
  
  <!-- 网络连接线 -->
  <g stroke="url(#logoGradient)" stroke-width="1.5" opacity="0.7">
    <!-- 主要连接线 -->
    <line x1="24" y1="18" x2="24" y2="8" stroke-linecap="round"/>
    <line x1="24" y1="30" x2="24" y2="40" stroke-linecap="round"/>
    <line x1="18" y1="24" x2="8" y2="24" stroke-linecap="round"/>
    <line x1="30" y1="24" x2="40" y2="24" stroke-linecap="round"/>
    
    <!-- 对角连接线 -->
    <line x1="19.8" y1="19.8" x2="13.8" y2="13.8" stroke-linecap="round"/>
    <line x1="28.2" y1="28.2" x2="34.2" y2="34.2" stroke-linecap="round"/>
    <line x1="28.2" y1="19.8" x2="34.2" y2="13.8" stroke-linecap="round"/>
    <line x1="19.8" y1="28.2" x2="13.8" y2="34.2" stroke-linecap="round"/>
  </g>
  
  <!-- 外围节点 - 代表IP地址 -->
  <g fill="url(#logoAccent)">
    <circle cx="24" cy="8" r="2"/>
    <circle cx="24" cy="40" r="2"/>
    <circle cx="8" cy="24" r="2"/>
    <circle cx="40" cy="24" r="2"/>
    <circle cx="13.8" cy="13.8" r="1.5"/>
    <circle cx="34.2" cy="34.2" r="1.5"/>
    <circle cx="34.2" cy="13.8" r="1.5"/>
    <circle cx="13.8" cy="34.2" r="1.5"/>
  </g>
  
  <!-- 中心高光 -->
  <circle cx="21" cy="21" r="2" fill="url(#logoAccent)" opacity="0.4"/>
</svg>
